{
	"asset":{
		"generator":"Khronos glTF Blender I/O v3.6.27",
		"version":"2.0"
	},
	"extensionsUsed":[
		"KHR_materials_specular",
		"KHR_materials_ior"
	],
	"scene":0,
	"scenes":[
		{
			"name":"Scene",
			"nodes":[
				0,
				1,
				2,
				3,
				4
			]
		}
	],
	"nodes":[
		{
			"mesh":0,
			"name":"UV3",
			"rotation":[
				0.7071068286895752,
				0,
				0,
				0.7071068286895752
			],
			"scale":[
				0.009999999776482582,
				0.009999999776482582,
				0.009999999776482582
			]
		},
		{
			"mesh":1,
			"name":"Cylinder",
			"scale":[
				0.6031726598739624,
				0.04780010133981705,
				0.6031726598739624
			],
			"translation":[
				0,
				-0.04474750533699989,
				0
			]
		},
		{
			"mesh":2,
			"name":"All_Body_Main2_1",
			"rotation":[
				0.7071068286895752,
				0,
				0,
				0.7071068286895752
			],
			"scale":[
				0.009999999776482582,
				0.009999999776482582,
				0.009999999776482582
			]
		},
		{
			"mesh":3,
			"name":"UV2.001",
			"rotation":[
				0.7071068286895752,
				0,
				0,
				0.7071068286895752
			],
			"scale":[
				0.009999999776482582,
				0.009999999776482582,
				0.009999999776482582
			]
		},
		{
			"mesh":4,
			"name":"UV2.002",
			"rotation":[
				0.7071068286895752,
				0,
				0,
				0.7071068286895752
			],
			"scale":[
				0.009999999776482582,
				0.009999999776482582,
				0.009999999776482582
			]
		}
	],
	"materials":[
		{
			"doubleSided":true,
			"extensions":{
				"KHR_materials_specular":{
					"specularColorFactor":[
						2.371357614441398,
						2.371357614441398,
						2.371357614441398
					]
				},
				"KHR_materials_ior":{
					"ior":1.4500000476837158
				}
			},
			"name":"UV3.001",
			"normalTexture":{
				"index":0
			},
			"pbrMetallicRoughness":{
				"baseColorTexture":{
					"index":1
				},
				"metallicRoughnessTexture":{
					"index":2
				}
			}
		},
		{
			"doubleSided":true,
			"extensions":{
				"KHR_materials_specular":{
					"specularColorFactor":[
						0.46995993943233294,
						0.46995993943233294,
						0.46995993943233294
					]
				},
				"KHR_materials_ior":{
					"ior":1.4500000476837158
				}
			},
			"name":"Material.001",
			"pbrMetallicRoughness":{
				"baseColorTexture":{
					"index":3
				},
				"metallicFactor":0.5018182396888733,
				"roughnessFactor":0.4763636589050293
			}
		},
		{
			"doubleSided":true,
			"name":"Material.002",
			"pbrMetallicRoughness":{
				"baseColorTexture":{
					"index":4
				},
				"metallicFactor":0.610909104347229,
				"roughnessFactor":0.3400000035762787
			}
		},
		{
			"doubleSided":true,
			"name":"Material",
			"pbrMetallicRoughness":{
				"baseColorTexture":{
					"index":5
				},
				"metallicFactor":0.9709091186523438,
				"roughnessFactor":0.1945454478263855
			}
		},
		{
			"doubleSided":true,
			"extensions":{
				"KHR_materials_specular":{
					"specularColorFactor":[
						1.7634277676759849,
						1.7634277676759849,
						1.7634277676759849
					]
				},
				"KHR_materials_ior":{
					"ior":1.4500000476837158
				}
			},
			"name":"fgg",
			"pbrMetallicRoughness":{
				"baseColorTexture":{
					"index":6
				},
				"metallicFactor":0,
				"roughnessFactor":0.4490908980369568
			}
		}
	],
	"meshes":[
		{
			"name":"UV3.001",
			"primitives":[
				{
					"attributes":{
						"POSITION":0,
						"NORMAL":1,
						"TEXCOORD_0":2
					},
					"indices":3,
					"material":0
				}
			]
		},
		{
			"name":"Cylinder",
			"primitives":[
				{
					"attributes":{
						"POSITION":4,
						"NORMAL":5,
						"TEXCOORD_0":6
					},
					"indices":7,
					"material":1
				}
			]
		},
		{
			"name":"All_Body_Main2_1",
			"primitives":[
				{
					"attributes":{
						"POSITION":8,
						"NORMAL":9,
						"TEXCOORD_0":10
					},
					"indices":11,
					"material":2
				}
			]
		},
		{
			"name":"UV2.002",
			"primitives":[
				{
					"attributes":{
						"POSITION":12,
						"NORMAL":13,
						"TEXCOORD_0":14
					},
					"indices":15,
					"material":3
				}
			]
		},
		{
			"name":"UV2.003",
			"primitives":[
				{
					"attributes":{
						"POSITION":16,
						"NORMAL":17,
						"TEXCOORD_0":18
					},
					"indices":19,
					"material":4
				}
			]
		}
	],
	"textures":[
		{
			"sampler":0,
			"source":0
		},
		{
			"sampler":0,
			"source":1
		},
		{
			"sampler":0,
			"source":2
		},
		{
			"sampler":0,
			"source":3
		},
		{
			"sampler":0,
			"source":4
		},
		{
			"sampler":0,
			"source":5
		},
		{
			"sampler":0,
			"source":6
		}
	],
	"images":[
		{
			"mimeType":"image/png",
			"name":"UV3_Normal",
			"uri":"UV3_Normal.png"
		},
		{
			"mimeType":"image/png",
			"name":"UV3_Albedo.tga",
			"uri":"UV3_Albedo_tga.png"
		},
		{
			"mimeType":"image/png",
			"name":"UV3_Metallic.tga-UV3_roge",
			"uri":"UV3_Metallic_tga-UV3_roge.png"
		},
		{
			"mimeType":"image/png",
			"name":"baseddd",
			"uri":"baseddd.png"
		},
		{
			"mimeType":"image/png",
			"name":"asdwa_Material.001_BaseColor",
			"uri":"asdwa_Material_001_BaseColor.png"
		},
		{
			"mimeType":"image/png",
			"name":"UV2_Albedo.tga",
			"uri":"UV2_Albedo_tga.png"
		},
		{
			"mimeType":"image/png",
			"name":"body",
			"uri":"body.png"
		}
	],
	"accessors":[
		{
			"bufferView":0,
			"componentType":5126,
			"count":2391,
			"max":[
				33.770545959472656,
				50.51856994628906,
				-23.854766845703125
			],
			"min":[
				-33.77067947387695,
				7.2756218910217285,
				-105.63615417480469
			],
			"type":"VEC3"
		},
		{
			"bufferView":1,
			"componentType":5126,
			"count":2391,
			"type":"VEC3"
		},
		{
			"bufferView":2,
			"componentType":5126,
			"count":2391,
			"type":"VEC2"
		},
		{
			"bufferView":3,
			"componentType":5123,
			"count":10896,
			"type":"SCALAR"
		},
		{
			"bufferView":4,
			"componentType":5126,
			"count":613,
			"max":[
				1,
				2.8966217041015625,
				1
			],
			"min":[
				-1,
				-1,
				-1
			],
			"type":"VEC3"
		},
		{
			"bufferView":5,
			"componentType":5126,
			"count":613,
			"type":"VEC3"
		},
		{
			"bufferView":6,
			"componentType":5126,
			"count":613,
			"type":"VEC2"
		},
		{
			"bufferView":7,
			"componentType":5123,
			"count":2100,
			"type":"SCALAR"
		},
		{
			"bufferView":8,
			"componentType":5126,
			"count":948,
			"max":[
				5.560548305511475,
				62.117271423339844,
				-11.019801139831543
			],
			"min":[
				-5.565612316131592,
				-46.06074905395508,
				-74.80980682373047
			],
			"type":"VEC3"
		},
		{
			"bufferView":9,
			"componentType":5126,
			"count":948,
			"type":"VEC3"
		},
		{
			"bufferView":10,
			"componentType":5126,
			"count":948,
			"type":"VEC2"
		},
		{
			"bufferView":11,
			"componentType":5123,
			"count":4656,
			"type":"SCALAR"
		},
		{
			"bufferView":12,
			"componentType":5126,
			"count":342,
			"max":[
				5.4824676513671875,
				59.166812896728516,
				3.0924148559570312
			],
			"min":[
				-5.485075950622559,
				52.77022933959961,
				-12.025628089904785
			],
			"type":"VEC3"
		},
		{
			"bufferView":13,
			"componentType":5126,
			"count":342,
			"type":"VEC3"
		},
		{
			"bufferView":14,
			"componentType":5126,
			"count":342,
			"type":"VEC2"
		},
		{
			"bufferView":15,
			"componentType":5123,
			"count":1224,
			"type":"SCALAR"
		},
		{
			"bufferView":16,
			"componentType":5126,
			"count":15308,
			"max":[
				51.70204162597656,
				67.80125427246094,
				2.953435182571411
			],
			"min":[
				-51.702152252197266,
				-43.079811096191406,
				-109.95686340332031
			],
			"type":"VEC3"
		},
		{
			"bufferView":17,
			"componentType":5126,
			"count":15308,
			"type":"VEC3"
		},
		{
			"bufferView":18,
			"componentType":5126,
			"count":15308,
			"type":"VEC2"
		},
		{
			"bufferView":19,
			"componentType":5123,
			"count":71325,
			"type":"SCALAR"
		}
	],
	"bufferViews":[
		{
			"buffer":0,
			"byteLength":28692,
			"byteOffset":0,
			"target":34962
		},
		{
			"buffer":0,
			"byteLength":28692,
			"byteOffset":28692,
			"target":34962
		},
		{
			"buffer":0,
			"byteLength":19128,
			"byteOffset":57384,
			"target":34962
		},
		{
			"buffer":0,
			"byteLength":21792,
			"byteOffset":76512,
			"target":34963
		},
		{
			"buffer":0,
			"byteLength":7356,
			"byteOffset":98304,
			"target":34962
		},
		{
			"buffer":0,
			"byteLength":7356,
			"byteOffset":105660,
			"target":34962
		},
		{
			"buffer":0,
			"byteLength":4904,
			"byteOffset":113016,
			"target":34962
		},
		{
			"buffer":0,
			"byteLength":4200,
			"byteOffset":117920,
			"target":34963
		},
		{
			"buffer":0,
			"byteLength":11376,
			"byteOffset":122120,
			"target":34962
		},
		{
			"buffer":0,
			"byteLength":11376,
			"byteOffset":133496,
			"target":34962
		},
		{
			"buffer":0,
			"byteLength":7584,
			"byteOffset":144872,
			"target":34962
		},
		{
			"buffer":0,
			"byteLength":9312,
			"byteOffset":152456,
			"target":34963
		},
		{
			"buffer":0,
			"byteLength":4104,
			"byteOffset":161768,
			"target":34962
		},
		{
			"buffer":0,
			"byteLength":4104,
			"byteOffset":165872,
			"target":34962
		},
		{
			"buffer":0,
			"byteLength":2736,
			"byteOffset":169976,
			"target":34962
		},
		{
			"buffer":0,
			"byteLength":2448,
			"byteOffset":172712,
			"target":34963
		},
		{
			"buffer":0,
			"byteLength":183696,
			"byteOffset":175160,
			"target":34962
		},
		{
			"buffer":0,
			"byteLength":183696,
			"byteOffset":358856,
			"target":34962
		},
		{
			"buffer":0,
			"byteLength":122464,
			"byteOffset":542552,
			"target":34962
		},
		{
			"buffer":0,
			"byteLength":142650,
			"byteOffset":665016,
			"target":34963
		}
	],
	"samplers":[
		{
			"magFilter":9729,
			"minFilter":9987
		}
	],
	"buffers":[
		{
			"byteLength":807668,
			"uri":"pexui.bin"
		}
	]
}
