{
	"asset":{
		"generator":"Khronos glTF Blender I/O v3.6.27",
		"version":"2.0"
	},
	"extensionsUsed":[
		"KHR_materials_specular",
		"KHR_materials_ior"
	],
	"scene":0,
	"scenes":[
		{
			"name":"Scene",
			"nodes":[
				0,
				1,
				2,
				3,
				4
			]
		}
	],
	"nodes":[
		{
			"mesh":0,
			"name":"AZLow",
			"rotation":[
				0.7071068286895752,
				0,
				0,
				0.7071068286895752
			],
			"scale":[
				0.009999999776482582,
				0.009999999776482582,
				0.009999999776482582
			],
			"translation":[
				0,
				0.30178719758987427,
				-0.10897064208984375
			]
		},
		{
			"mesh":1,
			"name":"Dimon1Low.004",
			"rotation":[
				0.7071068286895752,
				0,
				0,
				0.7071068286895752
			],
			"scale":[
				0.009999999776482582,
				0.009999999776482582,
				0.009999999776482582
			],
			"translation":[
				0,
				0.30178719758987427,
				-0.10897064208984375
			]
		},
		{
			"mesh":2,
			"name":"Dimon1Low.005",
			"rotation":[
				0.7071068286895752,
				0,
				0,
				0.7071068286895752
			],
			"scale":[
				0.009999999776482582,
				0.009999999776482582,
				0.009999999776482582
			],
			"translation":[
				0,
				0.30178719758987427,
				-0.10897064208984375
			]
		},
		{
			"mesh":3,
			"name":"BodyLow",
			"rotation":[
				0.7071068286895752,
				0,
				0,
				0.7071068286895752
			],
			"scale":[
				0.009999999776482582,
				0.009999999776482582,
				0.009999999776482582
			],
			"translation":[
				0,
				0.30178719758987427,
				-0.10896960645914078
			]
		},
		{
			"mesh":4,
			"name":"Bases",
			"scale":[
				0.5788075923919678,
				0.5788075923919678,
				0.5788075923919678
			],
			"translation":[
				0,
				-0.017102748155593872,
				-0.008920169435441494
			]
		}
	],
	"materials":[
		{
			"doubleSided":true,
			"extensions":{
				"KHR_materials_specular":{
					"specularColorFactor":[
						2.371357614441398,
						2.371357614441398,
						2.371357614441398
					]
				},
				"KHR_materials_ior":{
					"ior":1.4500000476837158
				}
			},
			"name":"Low_High.001",
			"normalTexture":{
				"index":0
			},
			"pbrMetallicRoughness":{
				"baseColorTexture":{
					"index":1
				},
				"roughnessFactor":0.07999999821186066
			}
		},
		{
			"doubleSided":true,
			"extensions":{
				"KHR_materials_specular":{
					"specularColorFactor":[
						2.371357614441398,
						2.371357614441398,
						2.371357614441398
					]
				},
				"KHR_materials_ior":{
					"ior":1.4500000476837158
				}
			},
			"name":"Dimon1Low",
			"pbrMetallicRoughness":{
				"baseColorFactor":[
					0,
					0.5,
					0.017463402822613716,
					1
				],
				"roughnessFactor":0.0727272629737854
			}
		},
		{
			"doubleSided":true,
			"emissiveFactor":[
				0.019999999552965164,
				0.019999999552965164,
				0.019999999552965164
			],
			"extensions":{
				"KHR_materials_specular":{
					"specularColorFactor":[
						1.345206490489584,
						1.345206490489584,
						1.345206490489584
					]
				},
				"KHR_materials_ior":{
					"ior":1.4500000476837158
				}
			},
			"name":"Low_High_Body.001",
			"normalTexture":{
				"index":2
			},
			"pbrMetallicRoughness":{
				"baseColorTexture":{
					"index":3
				},
				"metallicFactor":0,
				"roughnessFactor":0.4654545783996582
			}
		},
		{
			"doubleSided":true,
			"extensions":{
				"KHR_materials_specular":{
					"specularColorFactor":[
						1.289156273056491,
						1.289156273056491,
						1.289156273056491
					]
				},
				"KHR_materials_ior":{
					"ior":1.4500000476837158
				}
			},
			"name":"Material.003",
			"pbrMetallicRoughness":{
				"baseColorTexture":{
					"index":4
				},
				"metallicFactor":0.8290908932685852,
				"roughnessFactor":0.4636363983154297
			}
		}
	],
	"meshes":[
		{
			"name":"Low_High.003",
			"primitives":[
				{
					"attributes":{
						"POSITION":0,
						"NORMAL":1,
						"TEXCOORD_0":2
					},
					"indices":3,
					"material":0
				}
			]
		},
		{
			"name":"Dimon1Low.004",
			"primitives":[
				{
					"attributes":{
						"POSITION":4,
						"NORMAL":5,
						"TEXCOORD_0":6
					},
					"indices":7,
					"material":1
				}
			]
		},
		{
			"name":"Dimon1Low.005",
			"primitives":[
				{
					"attributes":{
						"POSITION":8,
						"NORMAL":9,
						"TEXCOORD_0":10
					},
					"indices":7,
					"material":1
				}
			]
		},
		{
			"name":"Low_High_Body.001",
			"primitives":[
				{
					"attributes":{
						"POSITION":11,
						"NORMAL":12,
						"TEXCOORD_0":13
					},
					"indices":14,
					"material":2
				}
			]
		},
		{
			"name":"Cylinder",
			"primitives":[
				{
					"attributes":{
						"POSITION":15,
						"NORMAL":16,
						"TEXCOORD_0":17
					},
					"indices":18,
					"material":3
				}
			]
		}
	],
	"textures":[
		{
			"sampler":0,
			"source":0
		},
		{
			"sampler":0,
			"source":1
		},
		{
			"sampler":0,
			"source":2
		},
		{
			"sampler":0,
			"source":3
		},
		{
			"sampler":0,
			"source":4
		}
	],
	"images":[
		{
			"mimeType":"image/png",
			"name":"Untitled",
			"uri":"Untitled.png"
		},
		{
			"mimeType":"image/jpeg",
			"name":"Accessorie_Diamoned_1_2",
			"uri":"Accessorie_Diamoned_1_2.jpg"
		},
		{
			"mimeType":"image/jpeg",
			"name":"bodyNormalgood",
			"uri":"bodyNormalgood.jpg"
		},
		{
			"mimeType":"image/png",
			"name":"Untitled-1",
			"uri":"Untitled-1.png"
		},
		{
			"mimeType":"image/png",
			"name":"Untitled-2",
			"uri":"Untitled-2.png"
		}
	],
	"accessors":[
		{
			"bufferView":0,
			"componentType":5126,
			"count":4602,
			"max":[
				33.77262496948242,
				70.71979522705078,
				34.41338348388672
			],
			"min":[
				-33.78877258300781,
				-35.091426849365234,
				-75.52638244628906
			],
			"type":"VEC3"
		},
		{
			"bufferView":1,
			"componentType":5126,
			"count":4602,
			"type":"VEC3"
		},
		{
			"bufferView":2,
			"componentType":5126,
			"count":4602,
			"type":"VEC2"
		},
		{
			"bufferView":3,
			"componentType":5123,
			"count":26238,
			"type":"SCALAR"
		},
		{
			"bufferView":4,
			"componentType":5126,
			"count":44,
			"max":[
				5.55830717086792,
				44.71329116821289,
				4.998992443084717
			],
			"min":[
				-5.565543174743652,
				38.850624084472656,
				-4.45458984375
			],
			"type":"VEC3"
		},
		{
			"bufferView":5,
			"componentType":5126,
			"count":44,
			"type":"VEC3"
		},
		{
			"bufferView":6,
			"componentType":5126,
			"count":44,
			"type":"VEC2"
		},
		{
			"bufferView":7,
			"componentType":5123,
			"count":192,
			"type":"SCALAR"
		},
		{
			"bufferView":8,
			"componentType":5126,
			"count":44,
			"max":[
				5.560617446899414,
				72.9930648803711,
				-34.67510986328125
			],
			"min":[
				-5.563232421875,
				67.94730377197266,
				-44.646697998046875
			],
			"type":"VEC3"
		},
		{
			"bufferView":9,
			"componentType":5126,
			"count":44,
			"type":"VEC3"
		},
		{
			"bufferView":10,
			"componentType":5126,
			"count":44,
			"type":"VEC2"
		},
		{
			"bufferView":11,
			"componentType":5126,
			"count":28887,
			"max":[
				52.6691780090332,
				78.6795883178711,
				33.20842742919922
			],
			"min":[
				-52.6691780090332,
				-32.21692657470703,
				-80.48674774169922
			],
			"type":"VEC3"
		},
		{
			"bufferView":12,
			"componentType":5126,
			"count":28887,
			"type":"VEC3"
		},
		{
			"bufferView":13,
			"componentType":5126,
			"count":28887,
			"type":"VEC2"
		},
		{
			"bufferView":14,
			"componentType":5123,
			"count":167958,
			"type":"SCALAR"
		},
		{
			"bufferView":15,
			"componentType":5126,
			"count":719,
			"max":[
				0.9965844750404358,
				0.19107592105865479,
				1
			],
			"min":[
				-0.9965844750404358,
				-0.20255857706069946,
				-1
			],
			"type":"VEC3"
		},
		{
			"bufferView":16,
			"componentType":5126,
			"count":719,
			"type":"VEC3"
		},
		{
			"bufferView":17,
			"componentType":5126,
			"count":719,
			"type":"VEC2"
		},
		{
			"bufferView":18,
			"componentType":5123,
			"count":2724,
			"type":"SCALAR"
		}
	],
	"bufferViews":[
		{
			"buffer":0,
			"byteLength":55224,
			"byteOffset":0,
			"target":34962
		},
		{
			"buffer":0,
			"byteLength":55224,
			"byteOffset":55224,
			"target":34962
		},
		{
			"buffer":0,
			"byteLength":36816,
			"byteOffset":110448,
			"target":34962
		},
		{
			"buffer":0,
			"byteLength":52476,
			"byteOffset":147264,
			"target":34963
		},
		{
			"buffer":0,
			"byteLength":528,
			"byteOffset":199740,
			"target":34962
		},
		{
			"buffer":0,
			"byteLength":528,
			"byteOffset":200268,
			"target":34962
		},
		{
			"buffer":0,
			"byteLength":352,
			"byteOffset":200796,
			"target":34962
		},
		{
			"buffer":0,
			"byteLength":384,
			"byteOffset":201148,
			"target":34963
		},
		{
			"buffer":0,
			"byteLength":528,
			"byteOffset":201532,
			"target":34962
		},
		{
			"buffer":0,
			"byteLength":528,
			"byteOffset":202060,
			"target":34962
		},
		{
			"buffer":0,
			"byteLength":352,
			"byteOffset":202588,
			"target":34962
		},
		{
			"buffer":0,
			"byteLength":346644,
			"byteOffset":202940,
			"target":34962
		},
		{
			"buffer":0,
			"byteLength":346644,
			"byteOffset":549584,
			"target":34962
		},
		{
			"buffer":0,
			"byteLength":231096,
			"byteOffset":896228,
			"target":34962
		},
		{
			"buffer":0,
			"byteLength":335916,
			"byteOffset":1127324,
			"target":34963
		},
		{
			"buffer":0,
			"byteLength":8628,
			"byteOffset":1463240,
			"target":34962
		},
		{
			"buffer":0,
			"byteLength":8628,
			"byteOffset":1471868,
			"target":34962
		},
		{
			"buffer":0,
			"byteLength":5752,
			"byteOffset":1480496,
			"target":34962
		},
		{
			"buffer":0,
			"byteLength":5448,
			"byteOffset":1486248,
			"target":34963
		}
	],
	"samplers":[
		{
			"magFilter":9729,
			"minFilter":9987
		}
	],
	"buffers":[
		{
			"byteLength":1491696,
			"uri":"PexuiUpgrate.bin"
		}
	]
}
